<?xml version="1.0" encoding="utf-8"?>
<!-- Generator: Adobe Illustrator 23.0.3, SVG Export Plug-In . SVG Version: 6.00 Build 0)  -->
<svg version="1.1" id="Layer_1" xmlns="http://www.w3.org/2000/svg" xmlns:xlink="http://www.w3.org/1999/xlink" x="0px" y="0px"
	 viewBox="0 0 425.2 425.2" style="enable-background:new 0 0 425.2 425.2;" xml:space="preserve">
<style type="text/css">
	.st0{fill:#005984;}
	.st1{fill:#F6A01A;}
</style>
<g>
	<rect x="81.17" y="81.17" class="st0" width="17.52" height="227.81"/>
	<path class="st0" d="M116.21,396.6c-29.02,0-52.57-23.55-52.57-52.57s23.55-52.57,52.57-52.57c29.03,0,52.57,23.55,52.57,52.57
		S145.24,396.6,116.21,396.6L116.21,396.6z M116.21,308.98c-19.28,0-35.05,15.77-35.05,35.05c0,19.28,15.77,35.05,35.05,35.05
		c19.28,0,35.05-15.77,35.05-35.05C151.26,324.75,135.49,308.98,116.21,308.98L116.21,308.98z M116.21,308.98"/>
	<path class="st0" d="M306.46,396.6H116.21v-17.52h174.8l37.24-299.01l17.31,2.19L306.46,396.6z M306.46,396.6"/>
	<rect x="46.12" y="72.4" class="st1" width="332.96" height="17.53"/>
	<path class="st1" d="M273.93,81.17h-17.52V46.12h-87.62v35.05h-17.52V28.59h122.67V81.17z M273.93,81.17"/>
</g>
</svg>
