<svg version="1.2" baseProfile="tiny-ps" xmlns="http://www.w3.org/2000/svg" viewBox="0 0 16 24" width="16" height="24">
	<title>Login</title>
	<style>
		tspan { white-space:pre }
		.shp0 { fill: #a8b6bc } 
	</style>
	<g id="Login">
		<g id="unlocked-padlock">
			<path id="Path 485" class="shp0" d="M7.57 0L7.49 0C4.53 0 2.14 2.4 2.14 5.35L2.14 8.9C2.76 8.4 3.44 7.99 4.18 7.68C4.38 7.59 4.59 7.51 4.79 7.45L4.79 5.35C4.79 3.86 6 2.65 7.49 2.65L7.57 2.65C9.06 2.65 10.27 3.86 10.27 5.35C10.27 5.98 10.78 6.49 11.4 6.49L11.79 6.49C12.42 6.49 12.93 5.98 12.93 5.35C12.92 2.4 10.53 0 7.57 0Z" />
			<path id="Path 486" fill-rule="evenodd" class="shp0" d="M15.06 15.6C15.06 19.76 11.69 23.13 7.53 23.13C3.37 23.13 0 19.76 0 15.6C0 13.55 0.81 11.7 2.14 10.34C2.88 9.58 3.78 8.97 4.79 8.58C5.64 8.25 6.57 8.06 7.53 8.06C11.69 8.06 15.06 11.44 15.06 15.6ZM8.56 15.77C9.11 15.43 9.47 14.82 9.47 14.13C9.47 13.04 8.58 12.16 7.49 12.19C6.46 12.21 5.62 13.05 5.59 14.08C5.57 14.79 5.94 15.42 6.5 15.77C6.69 15.89 6.78 16.11 6.74 16.33L6.16 19.06C6.12 19.23 6.25 19.38 6.42 19.38L8.64 19.38C8.81 19.38 8.94 19.22 8.9 19.06L8.32 16.33C8.28 16.11 8.37 15.88 8.56 15.77Z" />
		</g>
	</g>
</svg>